<svg viewBox="22 42 676 362" xmlns="http://www.w3.org/2000/svg" role="img" aria-labelledby="ttl dsc">
    <title id="ttl">Mediation paths from oddity to discomfort</title>

    <style>
        .fil_blk { fill: currentColor; }
        .clr_blk { color: currentColor; }
        .str_blk {
            stroke: currentColor;
            stroke-width: 2.5;
            stroke-linecap: butt;
            stroke-linejoin: miter;
        }
        .fnt_sz_n, .fnt_sz_s, .fnt_foot {
            font-family: "Times New Roman", Times, serif;
            dominant-baseline: auto;
        }
        .fnt_sz_n {
            font-size: 13.5px;
            font-weight: 600;
        }
        .fnt_sz_s {
            font-size: 11.5px;
            font-weight: 400;
            opacity: 0.65;
        }
        .fnt_foot {
            font-size: 13px;
            font-weight: 300;
        }
        .box {
            stroke-width: 1.5;
            opacity: 0.75;
            fill: #eeeeee77;
            stroke: #111;
            color: #111;
            stroke-linecap: butt;
            stroke-linejoin: miter;
        }
        .i {
            font-style: italic;
        }
    </style>

    <defs>
        <marker id="arrow" markerWidth="9" markerHeight="9" refX="8" refY="3" orient="auto">
            <path d="M0,0 L8,3 L0,6 z" class="fil_blk" />
        </marker>
        <mask id="imagine-text-gaps-0t5lw9" maskUnits="userSpaceOnUse">
            <rect x="0" y="0" width="720" height="400" fill="white" />
            <rect x="192" y="145" width="70.09375" height="20" fill="black" rx="2" />
            <rect x="184" y="165" width="102.984375" height="17.5" fill="black" rx="2" />
            <rect x="466" y="145" width="70.6953125" height="20" fill="black" rx="2" />
            <rect x="466" y="165" width="75.65625" height="17.5" fill="black" rx="2" />
            <rect x="292" y="237" width="74.71875" height="20" fill="black" rx="2" />
            <rect x="248" y="271" width="191.7890625" height="17.5" fill="black" rx="2" />
            <rect x="90.5859375" y="243" width="54.828125" height="21" fill="black" rx="2" />
            <rect x="65.3515625" y="264" width="105.296875" height="17.5" fill="black" rx="2" />
            <rect x="323.609375" y="69" width="76.78125" height="21" fill="black" rx="2" />
            <rect x="300.70703125" y="87" width="122.5859375" height="21" fill="black" rx="2" />
            <rect x="569.21875" y="243" width="65.5625" height="21" fill="black" rx="2" />
            <rect x="536.91015625" y="264" width="130.1796875" height="17.5" fill="black" rx="2" />
            <rect x="36" y="343.5" width="265.578125" height="19" fill="black" rx="2" />
            <rect x="36" y="367" width="367.640625" height="17.5" fill="black" rx="2" />
        </mask>
    </defs>

    <rect x="22" y="42" width="676" height="362" rx="16" stroke="none" fill="#fff"></rect>

    <line x1="163" y1="228" x2="292" y2="118" class="str_blk"
        marker-end="url(#arrow)" mask="url(#imagine-text-gaps-0t5lw9)" />
    <line x1="432" y1="118" x2="558" y2="228" class="str_blk"
        marker-end="url(#arrow)" mask="url(#imagine-text-gaps-0t5lw9)" />
    <line x1="196" y1="262" x2="524" y2="262" class="str_blk"
        stroke-dasharray="7 5" marker-end="url(#arrow)" />


    <text x="180" y="160" class="fnt_sz_n fil_blk clr_blk">Path <tspan class="i">a</tspan>: <tspan class="i">B</tspan> = +2.821, <tspan class="i">p</tspan> &lt; .001</text>
    <text x="180" y="178" class="fnt_sz_s fil_blk clr_blk">more unexpected</text>
    <text x="430" y="160" class="fnt_sz_n fil_blk clr_blk">Path <tspan class="i">b</tspan>: <tspan class="i">B</tspan> = +0.412, <tspan class="i">p</tspan> &lt; .001</text>
    <text x="430" y="178" class="fnt_sz_s fil_blk clr_blk">more discomfort</text>
    <text x="360" y="252" text-anchor="middle" class="fnt_sz_n fil_blk clr_blk"><tspan class="i">c'</tspan>: <tspan class="i">B</tspan> = &#8722;0.391, <tspan class="i">p</tspan> &lt; .001</text>
    <text x="360" y="284" text-anchor="middle" class="fnt_sz_s fil_blk clr_blk">controlling for perceived unexpectedness</text>


    <rect x="40" y="232" width="156" height="58" rx="8" class="box" />
    <text x="118" y="259" text-anchor="middle" class="fnt_sz_n fil_blk clr_blk">Oddity</text>
    <text x="118" y="277" text-anchor="middle" class="fnt_sz_s fil_blk clr_blk">present vs absent</text>

    <rect x="292" y="60" width="140" height="58" rx="8" class="box" />
    <text x="362" y="85" text-anchor="middle" class="fnt_sz_n fil_blk clr_blk">Perceived</text>
    <text x="362" y="103" text-anchor="middle" class="fnt_sz_n fil_blk clr_blk">Unexpectedness</text>

    <rect x="524" y="232" width="156" height="58" rx="8" class="box" />
    <text x="602" y="259" font-size="14.5" text-anchor="middle" class="fnt_sz_n fil_blk clr_blk">Discomfort</text>
    <text x="602" y="277" font-size="11.5" text-anchor="middle" class="fnt_sz_s fil_blk clr_blk">higher = more discomfort</text>


    <line x1="40" y1="330" x2="680" y2="330" stroke-width="1" stroke="#111" opacity="1" />
    <text x="360" y="358" text-anchor="middle" class="fnt_foot fil_blk clr_blk">
        <tspan opacity="0.7"> indirect </tspan>
        <tspan font-weight="700"> (<tspan class="i">ab</tspan>) = +1.162 </tspan>
        <tspan opacity="0.7"> + direct </tspan>
        <tspan font-weight="700"> (<tspan class="i">c'</tspan>) = &#8722;0.391 </tspan>
        <tspan opacity="0.7"> &#8594; total </tspan>
        <tspan font-weight="700"> (<tspan class="i">c</tspan>) = +0.772, <tspan class="i">p</tspan> &lt; .001</tspan>
    </text>
    <text x="360" y="380" text-anchor="middle" opacity="0.2" class="fnt_sz_s clr_blk fil_blk"> 95% Bootstrap CI [1.052, 1.275] </text>
</svg>
